<svg width="107" height="40" viewBox="0 0 107 40" fill="none" xmlns="http://www.w3.org/2000/svg">
<rect width="40" height="40" rx="4.8" fill="url(#paint0_linear_4_5)"/>
<path d="M9.2642 27V12.4545H18.8949V14.9901H12.3395V18.456H18.2557V20.9915H12.3395V27H9.2642ZM20.9634 27V12.4545H24.0387V18.8679H24.2305L29.4648 12.4545H33.1509L27.7532 18.9673L33.2148 27H29.5359L25.5515 21.0199L24.0387 22.8665V27H20.9634Z" fill="white"/>
<path d="M49.2642 27V12.4545H58.8949V14.9901H52.3395V18.456H58.2557V20.9915H52.3395V27H49.2642ZM65.0348 27.2131C63.9316 27.2131 62.9775 26.9787 62.1726 26.5099C61.3724 26.0365 60.7545 25.3783 60.3189 24.5355C59.8833 23.688 59.6655 22.7055 59.6655 21.5881C59.6655 20.4612 59.8833 19.4763 60.3189 18.6335C60.7545 17.786 61.3724 17.1278 62.1726 16.6591C62.9775 16.1856 63.9316 15.9489 65.0348 15.9489C66.138 15.9489 67.0897 16.1856 67.8899 16.6591C68.6948 17.1278 69.3151 17.786 69.7507 18.6335C70.1863 19.4763 70.4041 20.4612 70.4041 21.5881C70.4041 22.7055 70.1863 23.688 69.7507 24.5355C69.3151 25.3783 68.6948 26.0365 67.8899 26.5099C67.0897 26.9787 66.138 27.2131 65.0348 27.2131ZM65.049 24.8693C65.5509 24.8693 65.9699 24.7273 66.3061 24.4432C66.6423 24.1544 66.8956 23.7614 67.0661 23.2642C67.2412 22.767 67.3288 22.2012 67.3288 21.5668C67.3288 20.9323 67.2412 20.3665 67.0661 19.8693C66.8956 19.3722 66.6423 18.9792 66.3061 18.6903C65.9699 18.4015 65.5509 18.2571 65.049 18.2571C64.5424 18.2571 64.1162 18.4015 63.7706 18.6903C63.4297 18.9792 63.1716 19.3722 62.9964 19.8693C62.826 20.3665 62.7408 20.9323 62.7408 21.5668C62.7408 22.2012 62.826 22.767 62.9964 23.2642C63.1716 23.7614 63.4297 24.1544 63.7706 24.4432C64.1162 24.7273 64.5424 24.8693 65.049 24.8693ZM75.1129 23.8608L75.12 20.2315H75.5604L79.0547 16.0909H82.5277L77.8331 21.5739H77.1158L75.1129 23.8608ZM72.3714 27V12.4545H75.397V27H72.3714ZM79.1896 27L75.9794 22.2486L77.9964 20.1108L82.7337 27H79.1896ZM91.0078 22.3551V16.0909H94.0334V27H91.1286V25.0185H91.0149C90.7687 25.6577 90.3591 26.1714 89.7862 26.5597C89.218 26.9479 88.5244 27.142 87.7053 27.142C86.9761 27.142 86.3345 26.9763 85.7805 26.6449C85.2266 26.3134 84.7933 25.8423 84.4808 25.2315C84.1731 24.6207 84.0168 23.8892 84.0121 23.0369V16.0909H87.0376V22.4972C87.0424 23.1411 87.2152 23.6501 87.5561 24.0241C87.897 24.3982 88.3539 24.5852 88.9268 24.5852C89.2914 24.5852 89.6323 24.5024 89.9496 24.3366C90.2668 24.1662 90.5225 23.9152 90.7166 23.5838C90.9155 23.2524 91.0125 22.8428 91.0078 22.3551ZM96.3967 27V25.196L101.738 18.5838V18.5057H96.5813V16.0909H105.381V18.0582L100.367 24.5071V24.5852H105.566V27H96.3967Z" fill="#09090B"/>
<defs>
<linearGradient id="paint0_linear_4_5" x1="0" y1="0" x2="40" y2="40" gradientUnits="userSpaceOnUse">
<stop stop-color="#A542D7"/>
<stop offset="1" stop-color="#CF67E4"/>
</linearGradient>
</defs>
</svg>
